<?xml version="1.0" encoding="UTF-8" standalone="no"?>
<svg
   xmlns:dc="http://purl.org/dc/elements/1.1/"
   xmlns:cc="http://creativecommons.org/ns#"
   xmlns:rdf="http://www.w3.org/1999/02/22-rdf-syntax-ns#"
   xmlns:svg="http://www.w3.org/2000/svg"
   xmlns="http://www.w3.org/2000/svg"
   xmlns:sodipodi="http://sodipodi.sourceforge.net/DTD/sodipodi-0.dtd"
   xmlns:inkscape="http://www.inkscape.org/namespaces/inkscape"
   width="512"
   height="512"
   viewBox="0 0 512 512"
   fill="none"
   version="1.1"
   id="svg3811"
   sodipodi:docname="secando.svg"
   inkscape:version="0.92.4 (5da689c313, 2019-01-14)">
  <metadata
     id="metadata3817">
    <rdf:RDF>
      <cc:Work
         rdf:about="">
        <dc:format>image/svg+xml</dc:format>
        <dc:type
           rdf:resource="http://purl.org/dc/dcmitype/StillImage" />
        <dc:title></dc:title>
      </cc:Work>
    </rdf:RDF>
  </metadata>
  <defs
     id="defs3815" />
  <sodipodi:namedview
     pagecolor="#ffffff"
     bordercolor="#666666"
     borderopacity="1"
     objecttolerance="10"
     gridtolerance="10"
     guidetolerance="10"
     inkscape:pageopacity="0"
     inkscape:pageshadow="2"
     inkscape:window-width="1600"
     inkscape:window-height="871"
     id="namedview3813"
     showgrid="false"
     inkscape:zoom="1.5136719"
     inkscape:cx="301.65164"
     inkscape:cy="261.70787"
     inkscape:window-x="0"
     inkscape:window-y="75"
     inkscape:window-maximized="1"
     inkscape:current-layer="svg3811" />
  <path
     d="m 256,358.2 c 33.13786,0 60.00129,-26.86343 60.00129,-60.00129 0,-33.13786 -26.86343,-60.00129 -60.00129,-60.00129 -33.13786,0 -60.00129,26.86343 -60.00129,60.00129 0,33.13786 26.86343,60.00129 60.00129,60.00129 z"
     id="path3785"
     style="fill:#ffcc00;stroke-width:0.65935487"
     inkscape:connector-curvature="0" />
  <path
     d="M 374.02452,87.20516 H 137.97548 c -18.17841,0 -32.96774,14.78933 -32.96774,32.96774 v 271.6542 c 0,18.17841 14.78933,32.96774 32.96774,32.96774 h 236.04904 c 18.17841,0 32.96774,-14.78933 32.96774,-32.96774 V 120.1729 c 0,-18.17841 -14.78933,-32.96774 -32.96774,-32.96774 z m 19.78064,304.62194 c 0,10.90705 -8.87359,19.78064 -19.78064,19.78064 H 137.97548 c -10.90705,0 -19.78064,-8.87359 -19.78064,-19.78064 V 184.78968 H 343.2544 c 3.64096,0 6.59355,-2.95259 6.59355,-6.59355 0,-3.64096 -2.95259,-6.59355 -6.59355,-6.59355 H 118.19484 V 120.1729 c 0,-10.90705 8.87359,-19.78064 19.78064,-19.78064 h 236.04904 c 10.90705,0 19.78064,8.87359 19.78064,19.78064 z"
     id="path3789"
     style="fill:#f2f2f2;stroke-width:0.65935487"
     inkscape:connector-curvature="0" />
  <path
     d="m 374.29485,173.53449 c -1.23299,-1.22706 -2.93413,-1.93191 -4.66823,-1.93191 -1.7341,0 -3.42864,0.70485 -4.66164,1.93191 -1.2264,1.2264 -1.93191,2.92754 -1.93191,4.66164 0,1.7341 0.70485,3.43524 1.93191,4.66098 1.2264,1.2264 2.92754,1.93257 4.66164,1.93257 1.7407,0 3.43524,-0.70551 4.66823,-1.93257 1.22574,-1.23234 1.92532,-2.92688 1.92532,-4.66098 0,-1.7341 -0.69958,-3.43524 -1.92532,-4.66164 z"
     id="path3791"
     style="fill:#ececec;stroke-width:0.65935487"
     inkscape:connector-curvature="0" />
  <path
     d="m 322.2045,231.99223 c -14.47679,-14.47482 -32.81543,-23.63787 -53.03455,-26.49551 -19.54723,-2.7627 -39.86195,0.80441 -57.19837,10.04527 -3.2137,1.713 -4.4302,5.70605 -2.71654,8.91975 1.71234,3.21369 5.70606,4.4302 8.91975,2.71654 31.43342,-16.75552 69.49336,-11.07386 94.70512,14.13921 31.36353,31.36353 31.36353,82.39759 0,113.76113 -15.68342,15.68407 -36.27837,23.52512 -56.88057,23.52314 -20.59693,-0.002 -41.20045,-7.84303 -56.88122,-23.52314 -25.96606,-25.96672 -31.08133,-66.15637 -12.43873,-97.7342 1.85147,-3.13589 0.81034,-7.17905 -2.32555,-9.02986 -3.13589,-1.85213 -7.17905,-0.80969 -9.02986,2.32554 -21.70135,36.76036 -15.75133,83.54092 14.46954,113.76311 18.25358,18.25292 42.2297,27.37839 66.20582,27.37839 23.97612,0 47.9529,-9.12613 66.20516,-27.37839 36.50452,-36.50584 36.50452,-95.90514 0,-132.41098 z"
     id="path3793"
     style="fill:#ececec;stroke-width:0.65935487"
     inkscape:connector-curvature="0" />
  <path
     d="m 199.73198,231.40606 c -2.60248,-2.61368 -6.71751,-2.60445 -9.36746,0.0218 -2.64995,2.62621 -2.69544,6.74059 -0.10352,9.3668 1.29893,1.31673 2.98029,1.97543 4.67021,1.97543 1.6807,0 3.36931,-0.65145 4.69659,-1.95565 0.0138,-0.0139 0.027,-0.027 0.0415,-0.0409 2.63808,-2.63808 2.66577,-6.75245 0.0626,-9.36746 z"
     id="path3795"
     style="fill:#e6e6e6;stroke-width:0.65935487"
     inkscape:connector-curvature="0" />
  <path
     d="m 256,230.94452 c -37.08409,0 -67.25419,30.1701 -67.25419,67.25419 0,37.08409 30.1701,67.25419 67.25419,67.25419 37.08409,0 67.25419,-30.1701 67.25419,-67.25419 0,-37.08409 -30.1701,-67.25419 -67.25419,-67.25419 z m 0,13.18709 c 28.46699,0 51.84969,22.11938 53.90358,50.07075 -3.78668,3.36535 -8.58744,5.19704 -13.72777,5.19704 -5.85243,0 -11.26574,-2.37302 -15.24231,-6.68191 -1.24816,-1.35233 -3.00534,-2.1218 -4.8456,-2.1218 -1.84025,0 -3.59744,0.76947 -4.84559,2.1218 -3.97657,4.30889 -9.38988,6.68191 -15.24231,6.68191 -5.85243,0 -11.26574,-2.37302 -15.24231,-6.68191 -1.24815,-1.35233 -3.00534,-2.1218 -4.84559,-2.1218 -1.84026,0 -3.59744,0.76947 -4.8456,2.1218 -3.97657,4.30889 -9.38988,6.68191 -15.24231,6.68191 -5.14033,0 -9.94109,-1.83169 -13.72777,-5.19704 2.05389,-27.95137 25.43659,-50.07075 53.90358,-50.07075 z m 0,108.1342 c -25.70099,0 -47.25596,-18.03204 -52.71674,-42.10443 3.95811,1.57784 8.21095,2.42577 12.54159,2.42577 7.25554,0 14.30404,-2.35324 20.0879,-6.59684 5.78321,4.2436 12.83237,6.59684 20.08791,6.59684 7.25554,0 14.30404,-2.35324 20.0879,-6.59684 5.78321,4.2436 12.83237,6.59684 20.08791,6.59684 4.32998,0 8.58348,-0.84727 12.54159,-2.42577 -5.4621,24.07239 -27.01707,42.10443 -52.71806,42.10443 z"
     id="path3797"
     style="fill:#ececec;stroke-width:0.65935487"
     inkscape:connector-curvature="0" />
  <path
     d="m 358.2,111.93097 c -12.36158,0 -22.41806,10.05648 -22.41806,22.41806 0,12.36159 10.05648,22.41807 22.41806,22.41807 12.36159,0 22.41807,-10.05648 22.41807,-22.41807 0,-12.36158 -10.05648,-22.41806 -22.41807,-22.41806 z m 0,31.64903 c -5.09022,0 -9.23097,-4.14075 -9.23097,-9.23097 0,-5.09022 4.14075,-9.23097 9.23097,-9.23097 5.09022,0 9.23097,4.14075 9.23097,9.23097 0,5.09022 -4.14075,9.23097 -9.23097,9.23097 z"
     id="path3799"
     style="fill:#00ff00;stroke-width:0.65935487"
     inkscape:connector-curvature="0" />
  <path
     d="m 308.73916,117.20581 c -9.45317,0 -17.14323,7.69005 -17.14323,17.14322 0,9.45317 7.69006,17.14323 17.14323,17.14323 9.45317,0 17.14322,-7.69006 17.14322,-17.14323 0,-9.45317 -7.69005,-17.14322 -17.14322,-17.14322 z m 0,21.09935 c -2.18181,0 -3.95613,-1.77432 -3.95613,-3.95613 0,-2.1818 1.77432,-3.95613 3.95613,-3.95613 2.1818,0 3.95613,1.77433 3.95613,3.95613 0,2.18181 -1.77433,3.95613 -3.95613,3.95613 z"
     id="path3801"
     style="fill:#ececec;stroke-width:0.65935487"
     inkscape:connector-curvature="0" />
  <path
     d="m 147.20645,117.86516 c -3.64096,0 -6.59355,2.95259 -6.59355,6.59355 v 19.78064 c 0,3.64096 2.95259,6.59355 6.59355,6.59355 3.64096,0 6.59355,-2.95259 6.59355,-6.59355 v -19.78064 c 0,-3.64096 -2.95259,-6.59355 -6.59355,-6.59355 z"
     id="path3803"
     style="fill:#ececec;stroke-width:0.65935487"
     inkscape:connector-curvature="0" />
  <path
     d="m 173.79955,117.86516 c -3.64096,0 -6.59355,2.95259 -6.59355,6.59355 v 19.78064 c 0,3.64096 2.95259,6.59355 6.59355,6.59355 3.64096,0 6.59355,-2.95259 6.59355,-6.59355 v -19.78064 c 0,-3.64096 -2.95259,-6.59355 -6.59355,-6.59355 z"
     id="path3805"
     style="fill:#ececec;stroke-width:0.65935487"
     inkscape:connector-curvature="0" />
  <path
     d="m 200.39529,117.86516 c -3.64096,0 -6.59355,2.95259 -6.59355,6.59355 v 19.78064 c 0,3.64096 2.95259,6.59355 6.59355,6.59355 3.64095,0 6.59355,-2.95259 6.59355,-6.59355 v -19.78064 c 0,-3.64096 -2.9526,-6.59355 -6.59355,-6.59355 z"
     id="path3807"
     style="fill:#ececec;stroke-width:0.65935487"
     inkscape:connector-curvature="0" />
  <path
     d="m 226.98839,117.86516 c -3.64096,0 -6.59355,2.95259 -6.59355,6.59355 v 19.78064 c 0,3.64096 2.95259,6.59355 6.59355,6.59355 3.64095,0 6.59355,-2.95259 6.59355,-6.59355 v -19.78064 c 0,-3.64096 -2.9526,-6.59355 -6.59355,-6.59355 z"
     id="path3809"
     style="fill:#ececec;stroke-width:0.65935487"
     inkscape:connector-curvature="0" />
</svg>
