<?xml version="1.0" encoding="UTF-8" standalone="no"?>
<!-- Created with Inkscape (http://www.inkscape.org/) -->

<svg
   xmlns:dc="http://purl.org/dc/elements/1.1/"
   xmlns:cc="http://creativecommons.org/ns#"
   xmlns:rdf="http://www.w3.org/1999/02/22-rdf-syntax-ns#"
   xmlns:svg="http://www.w3.org/2000/svg"
   xmlns="http://www.w3.org/2000/svg"
   xmlns:sodipodi="http://sodipodi.sourceforge.net/DTD/sodipodi-0.dtd"
   xmlns:inkscape="http://www.inkscape.org/namespaces/inkscape"
   width="850"
   height="800"
   viewBox="0 0 224.89583 211.66668"
   version="1.1"
   id="svg4029"
   inkscape:version="0.92.1 r15371"
   sodipodi:docname="planta3.svg">
  <defs
     id="defs4023">
    <clipPath
       clipPathUnits="userSpaceOnUse"
       id="clipPath6934">
      <g
         inkscape:label="Clip"
         id="use6936">
        <path
           inkscape:label="x1"
           style="fill:#666666;stroke-width:0.26458332"
           inkscape:connector-curvature="0"
           d="m 25.593024,248.55916 a 1.5875,1.5875 0 0 1 1.5875,1.5875 c 0,0.58738 -0.320146,1.10067 -0.79375,1.37583 v 0.47625 a 0.26458333,0.26458333 0 0 1 -0.264584,0.26459 h -1.058333 a 0.26458333,0.26458333 0 0 1 -0.264583,-0.26459 v -0.47625 c -0.473604,-0.27516 -0.79375,-0.78845 -0.79375,-1.37583 a 1.5875,1.5875 0 0 1 1.5875,-1.5875 m 0.529166,3.96875 v 0.26458 a 0.26458333,0.26458333 0 0 1 -0.264583,0.26459 H 25.32844 a 0.26458333,0.26458333 0 0 1 -0.264583,-0.26459 v -0.26458 h 1.058333 m 1.5875,-2.64583 h 0.79375 v 0.52916 h -0.79375 v -0.52916 m -5.027083,0 h 0.79375 v 0.52916 h -0.79375 v -0.52916 m 3.175,-2.64584 v 0.79375 H 25.32844 v -0.79375 h 0.529167 m -2.137833,0.66146 0.563562,0.56621 -0.375708,0.37306 -0.563563,-0.56091 0.375709,-0.37836 m 3.182937,0.56357 0.560917,-0.56357 0.378354,0.37836 -0.563563,0.56091 z"
           id="path6942" />
        <path
           inkscape:label="x0"
           style="fill:#666666;stroke-width:0.26458332"
           inkscape:connector-curvature="0"
           d="m 48.758929,249.0348 a 1.5875,1.5875 0 0 1 1.5875,1.5875 c 0,0.58738 -0.320146,1.10067 -0.79375,1.37583 v 0.47625 a 0.26458333,0.26458333 0 0 1 -0.264584,0.26459 h -1.058333 a 0.26458333,0.26458333 0 0 1 -0.264583,-0.26459 v -0.47625 c -0.473604,-0.27516 -0.79375,-0.78845 -0.79375,-1.37583 a 1.5875,1.5875 0 0 1 1.5875,-1.5875 m 0.529166,3.96875 v 0.26458 a 0.26458333,0.26458333 0 0 1 -0.264583,0.26459 h -0.529167 a 0.26458333,0.26458333 0 0 1 -0.264583,-0.26459 v -0.26458 h 1.058333 m 1.5875,-2.64583 h 0.79375 v 0.52916 h -0.79375 v -0.52916 m -5.027083,0 h 0.79375 v 0.52916 h -0.79375 v -0.52916 m 3.175,-2.64584 v 0.79375 h -0.529167 v -0.79375 h 0.529167 m -2.137833,0.66146 0.563562,0.56621 -0.375708,0.37306 -0.563563,-0.56091 0.375709,-0.37836 m 3.182937,0.56357 0.560917,-0.56357 0.378354,0.37836 -0.563563,0.56091 z"
           id="path6944" />
        <path
           inkscape:label="x2"
           style="fill:#666666;stroke-width:0.26458332"
           inkscape:connector-curvature="0"
           d="m 24.321523,202.4027 a 1.5875,1.5875 0 0 1 1.5875,1.5875 c 0,0.58738 -0.32014,1.10067 -0.79375,1.37583 v 0.47625 a 0.26458333,0.26458333 0 0 1 -0.264579,0.26459 h -1.058331 a 0.26458333,0.26458333 0 0 1 -0.26459,-0.26459 v -0.47625 c -0.4736,-0.27516 -0.79375,-0.78845 -0.79375,-1.37583 a 1.5875,1.5875 0 0 1 1.5875,-1.5875 m 0.529171,3.96875 v 0.26458 a 0.26458333,0.26458333 0 0 1 -0.264581,0.26459 h -0.52917 a 0.26458333,0.26458333 0 0 1 -0.26458,-0.26459 v -0.26458 h 1.058331 m 1.587497,-2.64583 h 0.79375 v 0.52916 h -0.79375 v -0.52916 m -5.027078,0 h 0.79375 v 0.52916 h -0.79375 v -0.52916 m 3.175,-2.64584 v 0.79375 h -0.52917 v -0.79375 h 0.52917 m -2.13784,0.66146 0.56357,0.56621 -0.37571,0.37306 -0.56357,-0.56091 0.37571,-0.37836 m 3.18294,0.56357 0.56092,-0.56357 0.378348,0.37836 -0.563558,0.56091 z"
           id="path6946" />
      </g>
    </clipPath>
  </defs>
  <sodipodi:namedview
     id="base"
     pagecolor="#ffffff"
     bordercolor="#666666"
     borderopacity="1.0"
     inkscape:pageopacity="0.0"
     inkscape:pageshadow="2"
     inkscape:zoom="0.98994949"
     inkscape:cx="676.8646"
     inkscape:cy="427.34035"
     inkscape:document-units="mm"
     inkscape:current-layer="layer1"
     showgrid="false"
     units="px"
     width="1080px"
     inkscape:window-width="1680"
     inkscape:window-height="977"
     inkscape:window-x="0"
     inkscape:window-y="0"
     inkscape:window-maximized="1"
     inkscape:snap-bbox="true"
     inkscape:snap-intersection-paths="true"
     inkscape:snap-grids="true" />
  <metadata
     id="metadata4026">
    <rdf:RDF>
      <cc:Work
         rdf:about="">
        <dc:format>image/svg+xml</dc:format>
        <dc:type
           rdf:resource="http://purl.org/dc/dcmitype/StillImage" />
        <dc:title></dc:title>
      </cc:Work>
    </rdf:RDF>
  </metadata>
  <g
     inkscape:label="Camada 1"
     inkscape:groupmode="layer"
     id="layer1"
     transform="translate(0,-85.333325)">
    <rect
       id="binary_sensor.porta_entrada"
       width="12.37872"
       height="1.8190105"
       x="100.18731"
       y="268.98251"
       style="stroke-width:0.26757774"
       inkscape:label="#binary_sensor.porta_entrada" />
    <rect
       style="fill:none;stroke-width:0.25976062"
       id="rect313"
       width="12.853661"
       height="15.566018"
       x="100.36213"
       y="253.34375" />
    <path
       style="fill:#808080;stroke-width:0.07268054"
       d="m 142.22095,97.004864 v 17.825256 17.82526 h -5.0493 -5.04982 v 9.65524 9.65574 H 71.062499 10.003179 v 64.39348 64.394 h 43.42061 43.4206 v 6.72156 6.72155 h 10.419521 10.41952 v -3.78788 -3.78788 h 43.95442 43.95391 v -7.39025 c 0,-6.51944 -0.0123,-7.38973 -0.10646,-7.38973 -0.079,0 -0.10696,-0.0868 -0.10696,-0.33435 v -0.33434 h -0.35554 -0.35553 v -3.82509 -3.82457 h 0.17776 0.17777 v -4.23386 -4.23333 h 0.17777 c 0.16001,0 0.17777,-0.0298 0.17777,-0.29714 0,-0.21459 0.0299,-0.29714 0.10696,-0.29714 0.0937,0 0.10646,-0.56959 0.10646,-4.6793 v -4.67878 h 2.24069 2.24017 v -7.09311 c 0,-6.25535 -0.0123,-7.09311 -0.10645,-7.09311 -0.079,0 -0.10697,-0.0863 -0.10697,-0.33383 v -0.33434 h -0.31988 -0.31987 v -3.82509 c -1e-5,-3.77551 0.002,-3.82509 0.1421,-3.82509 0.14025,0 0.14211,-0.0494 0.14211,-4.27054 v -4.27054 h 0.17777 c 0.16001,0 0.17777,-0.0298 0.17777,-0.29714 0,-0.21459 0.0299,-0.29714 0.10697,-0.29714 0.0941,0 0.10645,-0.86662 0.10645,-7.35304 0,-6.48641 -0.0123,-7.35304 -0.10645,-7.35304 -0.0771,0 -0.10697,-0.0826 -0.10697,-0.29714 v -0.29662 h -0.35554 -0.35553 v -2.82257 -2.82257 h 0.35553 0.35554 v -0.33382 c 0,-0.24755 0.028,-0.33435 0.10697,-0.33435 0.0942,0 0.10645,-0.98208 0.10645,-8.39277 0,-7.4107 -0.0123,-8.39277 -0.10645,-8.39277 -0.0771,0 -0.10697,-0.0826 -0.10697,-0.29714 v -0.29715 h -0.31988 -0.31987 v -5.27305 c -1e-5,-5.22382 0.001,-5.27358 0.1421,-5.27358 0.14125,0 0.14211,-0.0496 0.14211,-5.71903 v -5.71852 h 0.17777 c 0.16331,0 0.17777,-0.0273 0.17777,-0.33435 0,-0.24752 0.028,-0.33434 0.10697,-0.33434 0.0943,0 0.10645,-1.0482 0.10645,-8.98705 0,-7.93886 -0.0123,-8.98653 -0.10645,-8.98653 -0.0771,0 -0.10697,-0.0826 -0.10697,-0.29714 v -0.29714 h -0.35554 -0.35553 v -2.82257 -2.82206 h 0.35553 0.35554 v -0.33433 c 0,-0.24762 0.028,-0.33435 0.10697,-0.33435 0.0945,0 0.10645,-1.71208 0.10645,-14.96549 V 97.004864 h -33.92557 z m 0.14263,0.14831 h 2.70267 2.70268 v 0.85421 0.85421 h 6.4363 6.43682 v 3.527946 c 0,3.47842 0.002,3.52795 0.14211,3.52795 0.12114,0 0.14263,0.0496 0.14263,0.33435 v 0.33383 h 0.31987 0.31988 v 3.97391 3.9734 h -0.31988 -0.31987 v 0.29714 c 0,0.24759 -0.0241,0.29714 -0.14263,0.29714 -0.1414,0 -0.14211,0.0495 -0.14211,8.35557 0,8.30608 7.9e-4,8.35556 0.14211,8.35556 0.12114,0 0.14263,0.0496 0.14263,0.33434 0,0.30702 0.0144,0.33435 0.17776,0.33435 h 0.17777 v 5.71851 c 0,5.66945 0.001,5.71904 0.14211,5.71904 0.14124,0 0.14211,0.0498 0.14211,5.27358 v 5.27305 h -0.31988 -0.31987 v 0.29715 c 0,0.24759 -0.0241,0.29714 -0.14263,0.29714 -0.14025,0 -0.14211,0.0493 -0.14211,3.41632 v 3.41685 h -7.46776 -7.46828 v -4.97645 -4.97591 h -1.67122 -1.67121 v -27.4066 z m 20.12745,1.70842 h 22.90145 22.90196 v 11.029296 11.02982 h -18.20768 -18.20767 v 0.96531 0.96532 h 1.39216 1.39165 l -0.016,3.7698 -0.016,3.76927 1.59369,0.0455 c 1.43305,0.0409 1.65049,0.0644 2.16215,0.23254 1.38127,0.45393 2.30611,1.06757 3.17397,2.10737 0.88121,1.0558 1.40227,2.34231 1.52342,3.76049 l 0.0491,0.57567 h -3.39307 c -3.31587,0 -3.39448,0.003 -3.4303,0.14624 -0.0334,0.13331 -0.10965,0.14793 -0.86453,0.16692 l -0.82786,0.0207 0.004,0.27852 c 0.002,0.1532 0.01,0.94726 0.0176,1.76424 l 0.0145,1.48518 h 16.80982 16.81035 l -0.0238,19.14353 c -0.0132,10.52898 -0.0246,20.62257 -0.0253,22.43017 l -0.001,3.28661 H 190.1312 172.03929 l -0.0522,-0.72088 c -0.069,-0.96075 -0.41642,-2.17356 -0.85783,-2.99258 -0.74495,-1.38221 -1.99199,-2.78763 -2.87682,-3.2427 -0.0587,-0.0302 -0.28681,-0.16116 -0.50695,-0.29093 -0.84369,-0.4974 -2.71911,-0.98896 -3.47576,-0.91107 l -0.24908,0.0253 -0.007,0.7059 c -0.004,0.38807 -0.0121,2.21798 -0.0181,4.06642 h -5.3e-4 l -0.0109,3.36052 h -0.74673 -0.74672 v -31.49109 -31.49161 h 0.85318 0.85369 v -0.96532 -0.96583 h -0.85369 -0.85318 v -11.0293 z m -1.35134,7.055896 h 0.56948 0.56895 v 0.22272 0.22273 h -0.56895 -0.56948 v -0.22273 z m 1.03146,0.66818 c 0.0935,0 0.10697,0.49138 0.10697,3.97391 0,3.48253 -0.0135,3.9734 -0.10697,3.9734 -0.0935,0 -0.10645,-0.49087 -0.10645,-3.9734 0,-3.48253 0.0129,-3.97391 0.10645,-3.97391 z m -0.34571,1.90324 c 0.002,0.0297 0.005,0.15363 0.008,0.38085 0.0113,0.90891 0.0113,2.39632 0,3.30523 -0.0116,0.9089 -0.0207,0.1652 -0.0207,-1.65261 0,-1.36335 0.006,-2.12255 0.0129,-2.03347 z m -0.11627,6.2668 c 0.55998,0 0.56895,0.003 0.56895,0.18603 0,0.18268 -0.009,0.18552 -0.56895,0.18552 -0.55999,0 -0.56948,-0.003 -0.56948,-0.18552 0,-0.18267 0.01,-0.18603 0.56948,-0.18603 z m 5.19193,5.64462 v 0.22324 0.22272 h 3.9827 3.9827 v -0.22272 -0.22324 h -3.9827 z m 3.9827,0.14882 c 2.51302,0 3.84059,0.0258 3.84059,0.0744 0,0.0486 -1.32757,0.0739 -3.84059,0.0739 -2.51302,0 -3.84059,-0.0253 -3.84059,-0.0739 0,-0.0486 1.32757,-0.0744 3.84059,-0.0744 z m 5.61878,2.30219 h 15.89619 15.89567 v 8.09562 8.09564 h -15.89567 -15.89619 v -0.70538 -0.7054 h 3.4246 3.42511 l -0.046,-0.87281 c -0.11053,-2.10901 -0.94774,-3.80551 -2.51251,-5.09012 -1.01709,-0.83498 -2.63863,-1.46452 -3.77238,-1.46452 h -0.51883 v -3.67625 z m 32.04094,4.7537 c 0.093,0 0.10645,0.36284 0.10645,2.82206 0,2.45923 -0.0135,2.82257 -0.10645,2.82257 -0.093,0 -0.10646,-0.36334 -0.10646,-2.82257 0,-2.45922 0.0135,-2.82206 0.10646,-2.82206 z m 0.36483,1.47383 c 0.003,0.0221 0.005,0.10609 0.008,0.25735 0.0119,0.60502 0.012,1.57426 0,2.15387 -0.0118,0.57961 -0.0217,0.0845 -0.0217,-1.10019 0,-0.88848 0.006,-1.37739 0.0134,-1.31103 z m -34.11264,0.75396 h 0.74672 0.74673 v 0.18602 0.18552 h -0.74673 -0.74672 v -0.18552 z m -13.65602,2.00556 h 0.56948 0.56895 v 0.22271 0.22274 h -0.56895 -0.56948 v -0.22274 z m 0.56948,0.66869 h 0.28422 0.28473 v 10.99209 c 0,9.72138 -0.0127,10.99209 -0.10697,10.99209 -0.0939,0 -0.10645,-0.68503 -0.10645,-5.71902 v -5.71852 h -0.17777 -0.17776 v -5.27358 z m -29.44523,0.29661 h 0.24908 0.24856 v 9.58134 9.58133 h -0.24856 -0.24908 v -9.58133 z m 0.64027,0 h 1.28002 1.28003 v 9.58134 9.58133 h -1.28003 -1.28002 v -9.58133 z m 2.70267,0 h 1.59991 1.60042 v 9.58134 9.58133 h -1.60042 -1.59991 v -9.58133 z m 3.34243,0 h 1.63608 1.63556 v 9.58134 9.58133 h -1.63556 -1.63608 v -9.58133 z m 40.8926,4.54082 c 0.60588,0 1.20852,0.003 1.66191,0.009 0.9068,0.0113 0.14458,0.0212 -1.69395,0.0212 -1.83854,-1e-4 -2.58073,-0.009 -1.64899,-0.0212 0.46586,-0.006 1.07515,-0.009 1.68103,-0.009 z m -18.01595,8.49251 c 0.002,0.0476 0.005,0.23749 0.007,0.58291 0.0109,1.38165 0.0109,3.62065 0,4.97592 -0.0107,1.35528 -0.0196,0.22493 -0.0196,-2.512 0,-2.05269 0.005,-3.18957 0.0124,-3.04683 z m -151.680671,6.27765 h 67.70956 67.709051 v 4.93922 4.93873 H 77.854849 10.145289 v -4.93873 z m 198.291771,0.37155 h 0.24857 0.24908 v 5.27307 c 0,5.22382 -0.001,5.27358 -0.14211,5.27358 -0.14124,0 -0.14263,0.0491 -0.14263,5.71851 0,5.03399 -0.0126,5.71902 -0.10645,5.71902 -0.0944,0 -0.10646,-1.2707 -0.10646,-10.99208 z m -46.72789,2.22777 c 0.55998,0 0.56895,0.003 0.56895,0.18603 0,0.18269 -0.009,0.18553 -0.56895,0.18553 -0.55999,0 -0.56948,-0.003 -0.56948,-0.18553 0,-0.18267 0.01,-0.18603 0.56948,-0.18603 z m 47.55575,0.3328 c 0.002,0.0476 0.005,0.23698 0.008,0.58239 0.0109,1.38165 0.0109,3.62117 0,4.97644 -0.0107,1.35527 -0.0196,0.22493 -0.0196,-2.51199 0,-2.0527 0.005,-3.18956 0.0119,-3.04684 z m -199.119631,7.09466 h 67.70956 67.709051 v 1.41128 c 0,1.20485 0.0159,1.41077 0.10697,1.41077 0.079,0 0.10645,0.0868 0.10645,0.33433 v 0.33436 h 0.35554 0.35553 v 2.82257 2.82204 h -0.35553 -0.35554 v 0.25994 c 0,0.18155 -0.032,0.25993 -0.10645,0.25993 -0.094,0 -0.10697,0.7013 -0.10697,5.86733 v 5.86787 h -0.28422 c -0.20549,0 -0.28474,0.0306 -0.28474,0.11111 0,0.0804 -0.0793,0.11162 -0.28474,0.11162 -0.27949,0 -0.28422,0.004 -0.28422,0.27026 v 0.27026 l -0.37362,-0.047 c -0.20537,-0.0258 -7.7425,-0.047 -16.74936,-0.047 l -16.37626,-0.001 v -0.22273 c 0,-0.21042 -0.0155,-0.22272 -0.28422,-0.22272 -0.2055,0 -0.28474,-0.0312 -0.28474,-0.11162 0,-0.0986 -1.3315,-0.11111 -11.557441,-0.11111 -10.22593,0 -11.55743,0.0125 -11.55743,0.11111 0,0.0804 -0.0787,0.11162 -0.28422,0.11162 -0.26869,0 -0.28474,0.0123 -0.28474,0.22272 v 0.22273 h -8.32145 -8.32146 v -0.22273 c 0,-0.21042 -0.0155,-0.22272 -0.28422,-0.22272 -0.20547,0 -0.28473,-0.0312 -0.28473,-0.11162 0,-0.0976 -0.45439,-0.11111 -3.66283,-0.11111 h -3.66283 v 0.8909 0.89142 h -0.17776 -0.17777 v 4.04782 c 0,3.18945 -0.0188,4.04726 -0.0889,4.04626 -0.0489,-8e-4 -0.3771,-0.0479 -0.72916,-0.1049 -1.84458,-0.29858 -3.67982,-1.43328 -4.80332,-2.97036 -0.8326,-1.1391 -1.32171,-2.24052 -1.60197,-3.60754 -0.0293,-0.14297 -0.0723,-0.91186 -0.0956,-1.70842 l -0.0424,-1.44849 -0.37362,-0.0222 c -0.29932,-0.018 -0.3731,5.3e-4 -0.3731,0.093 0,0.0823 -0.0715,0.11524 -0.24908,0.11524 h -0.24909 v 0.37103 0.37156 h -2.70266 -2.70268 v -0.37156 -0.37103 h -0.31988 c -0.23707,0 -0.31987,-0.0291 -0.31987,-0.11162 0,-0.096 -0.24104,-0.11111 -1.74253,-0.11111 h -1.74253 v 18.30793 c 0,18.25855 -2.5e-4,18.30793 -0.14211,18.30793 -0.0782,0 -0.14263,0.0335 -0.14263,0.0744 0,0.0409 0.0644,0.0744 0.14263,0.0744 0.14044,0 0.14211,0.0492 0.14211,3.89899 v 3.8995 h 13.97537 13.97589 v 0.8909 0.89142 h 0.8537 0.85318 v 0.18552 0.18604 h 3.87625 c 3.6447,0 3.87641,0.007 3.87521,0.1297 -7.9e-4,0.0715 -0.0465,0.43077 -0.1018,0.7984 -0.28214,1.87546 -1.23746,3.57733 -2.74195,4.88498 -0.70201,0.61015 -1.63111,1.10081 -2.77399,1.46451 -0.71506,0.22757 -0.81222,0.23912 -2.2934,0.27802 l -1.5472,0.0408 v 16.47806 16.47807 h 14.29577 14.295771 v 4.90203 4.90151 H 55.166289 10.145259 v -4.90145 -4.90203 h 0.8537 0.85317 v -23.1733 -23.17275 h -0.85317 -0.8537 V 205.8132 187.17093 h 0.8537 0.85317 v -1.81953 -1.81953 h -0.85317 -0.8537 V 172.8364 Z m 137.232451,1.63401 h 6.63215 6.63216 v 9.87794 9.87847 h -2.65772 -2.65824 l -0.0506,-0.61288 c -0.0761,-0.92239 -0.3902,-1.99047 -0.80615,-2.74092 -0.48297,-0.87138 -1.01863,-1.59577 -1.4609,-1.97507 -0.20218,-0.17342 -0.43184,-0.37742 -0.51004,-0.45373 -0.27514,-0.26816 -1.30931,-0.81341 -1.9668,-1.03662 -0.72971,-0.24771 -1.42036,-0.38551 -1.9327,-0.38551 h -0.33228 v 3.60236 3.60237 h -0.46974 -0.46922 l 0.0248,-9.87847 z m -0.28474,1.85673 c 0.093,0 0.10698,0.36282 0.10698,2.82204 0,2.45924 -0.014,2.82257 -0.10698,2.82257 -0.093,0 -0.10645,-0.36333 -0.10645,-2.82257 0,-2.45922 0.0135,-2.82204 0.10645,-2.82204 z m 61.81639,0.15503 c 0.002,0.0444 0.004,0.22938 0.007,0.56896 0.0109,1.35825 0.0109,3.58098 0,4.93922 -0.0107,1.35825 -0.0196,0.24688 -0.0196,-2.46961 0,-2.03737 0.005,-3.1717 0.0124,-3.03857 z m -62.16262,1.3193 c 0.003,0.0221 0.005,0.10556 0.008,0.25682 0.0119,0.60502 0.012,1.57426 0,2.15388 -0.0118,0.57961 -0.0217,0.085 -0.0217,-1.09967 0,-0.88848 0.006,-1.37738 0.0134,-1.31103 z m 2.09858,9.46609 c 0.1029,0.004 0.3236,0.0335 0.56896,0.0786 1.63723,0.30059 3.24049,1.28132 4.1429,2.5342 0.57318,0.79582 1.04198,1.69702 1.23093,2.36679 0.20982,0.74372 0.37586,2.13285 0.37672,3.14916 l 5.3e-4,0.76119 h 2.73833 2.73834 v 17.23151 c 0,10.60785 -0.0254,17.23099 -0.0661,17.23099 -0.1296,0 -0.16236,0.30513 -0.047,0.43822 0.0993,0.11455 0.11317,0.48122 0.11317,3.0024 v 2.87269 h -13.14966 -13.14958 l -0.43253,0.48266 c -0.23786,0.26553 -0.44159,0.48265 -0.45269,0.48265 -0.0111,0 -3.59711,3.73434 -7.9685,8.29872 l -7.94784,8.29924 v 13.42553 13.42554 h -0.43512 -1.05833 -0.24908 -0.24856 v 0.14883 h 0.17776 0.17777 v 0.8909 0.89142 h 0.81752 0.81804 v 10.73216 10.73268 h -8.60568 -8.60619 v -10.73268 -10.73216 h 1.63608 1.63556 v -0.9865 c 0,-0.31894 0.0123,-0.63278 0.0305,-0.94465 h -0.88522 -0.1571 -0.55294 v -0.85421 -0.8537 H 87.741079 73.445319 v -14.9474 c 2.7e-4,-8.22098 0.0209,-15.1696 0.0455,-15.44144 l 0.0444,-0.49402 0.64854,-0.0532 c 0.79371,-0.0654 1.97572,-0.42064 2.85306,-0.85731 1.69916,-0.8457 3.30896,-2.81069 3.86023,-4.71134 0.2223,-0.76643 0.48925,-2.47721 0.41702,-2.67374 -0.0356,-0.0969 -0.54062,-0.11111 -3.91965,-0.11111 h -3.87832 v -0.78031 -0.7798 h 9.95702 9.95753 v -0.92811 -0.92862 h -4.40955 -4.40955 v -4.15944 -4.15995 l -5.63687,0.0191 -5.63635,0.0191 -0.0186,4.14083 -0.0181,4.14032 h -4.12481 -4.1243 v -5.86734 -5.86735 h -0.92449 -0.925 v 5.86735 5.86786 l -8.83667,-0.0186 -8.83719,-0.0191 -0.045,-1.03973 c -0.0585,-1.36151 -0.0585,-37.35421 0,-38.65862 l 0.045,-1.00252 h 4.33824 4.33875 l 0.0801,0.74259 c 0.34719,3.21286 2.42452,5.90786 5.36349,6.95875 0.73981,0.26453 2.37417,0.56654 2.59261,0.47904 0.0917,-0.0367 0.10862,-0.58849 0.12454,-4.11138 l 0.0186,-4.069 0.40877,-0.0222 0.40876,-0.0222 v 10.51306 10.51305 h 0.925 0.92449 v -10.50943 -10.50944 h 41.695651 41.69616 l -0.0248,-0.45682 c -0.039,-0.72371 0.0428,-1.22974 0.20619,-1.27434 0.13328,-0.0365 0.13726,-0.13706 0.13125,-3.57756 -0.003,-1.94718 0.01,-3.55683 0.0284,-3.57652 0.005,-0.005 0.0256,-0.006 0.0599,-0.005 z m -0.32143,0.41134 c 0.003,0.0133 0.006,0.0605 0.009,0.1452 0.0134,0.33895 0.0133,0.87392 0,1.18857 -0.0133,0.31464 -0.0243,0.0371 -0.0243,-0.6165 7e-5,-0.49019 0.006,-0.75722 0.015,-0.71727 z m 16.04244,0.90434 c 0.77141,0.0108 2.90501,0.6676 3.11764,0.95962 0.0196,0.0269 0.21169,0.13858 0.42684,0.24806 0.58494,0.29765 1.50356,1.17125 2.05931,1.95852 0.68185,0.96592 1.089,1.78602 1.35909,2.73731 0.22096,0.77832 0.23408,0.89256 0.27388,2.41381 l 0.0419,1.5968 1.41025,-0.0284 1.41025,-0.0284 -0.0186,3.22202 -0.0181,3.22203 1.63091,0.0465 c 2.2664,0.0647 2.86317,0.25008 4.33152,1.34307 1.37677,1.02482 2.34172,2.83545 2.49545,4.6824 l 0.0481,0.57568 h -3.42253 c -3.37487,0 -3.42201,0.002 -3.42201,0.14831 0,0.14054 -0.0479,0.14882 -0.83613,0.14883 h -0.83561 v 2.67373 2.67374 h 0.83561 0.83613 v 0.18552 0.18552 h 3.91139 c 3.08268,0 3.91186,0.0198 3.91087,0.093 -0.005,0.39639 -0.24222,1.54221 -0.42581,2.06085 -0.95443,2.69626 -2.60551,4.3163 -5.22759,5.1294 -0.74437,0.23086 -0.85554,0.24479 -2.29702,0.28629 l -1.51515,0.0434 0.005,14.36295 0.005,14.36295 -1.40612,-0.0284 -1.40663,-0.0284 -0.0419,1.5968 c -0.0398,1.52125 -0.0529,1.6355 -0.27388,2.41381 -0.55743,1.96329 -1.94382,3.82365 -3.58222,4.80591 -0.76122,0.45638 -1.84606,0.86336 -2.64531,0.9927 -0.35178,0.0569 -0.67977,0.10416 -0.72864,0.10491 -0.0701,0.001 -0.0889,-0.86483 -0.0889,-4.08399 0,-4.03546 -0.002,-4.08451 -0.14211,-4.08451 -0.13425,0 -0.14211,-0.0496 -0.14211,-0.8785 v -0.8785 l -1.70739,0.0341 -1.70687,0.0341 v -7.54838 -7.54838 h 0.85369 0.85318 v -20.17602 -20.17603 l 0.85369,0.0501 0.8537,0.0506 v -0.89348 c 0,-0.84385 0.008,-0.89297 0.14211,-0.89297 0.13986,0 0.14286,-0.0522 0.14986,-3.54655 0.005,-1.95058 0.002,-3.78887 -0.006,-4.08504 -0.0105,-0.40797 0.01,-0.53842 0.0817,-0.53742 z m -0.308,0.43924 c 10e-4,0.003 0.003,0.0135 0.004,0.031 0.0229,0.27968 0.0249,2.08442 0.004,4.0106 l -0.0377,3.5021 -0.004,-4.01059 c -0.002,-2.06802 0.0126,-3.58236 0.0336,-3.53312 z m -15.7334,1.50793 c 0.003,0.0179 0.005,0.1012 0.008,0.25631 0.0119,0.62041 0.0119,1.65678 0,2.3027 -0.0116,0.64593 -0.0217,0.13825 -0.0217,-1.12809 0,-0.94974 0.006,-1.48466 0.0134,-1.43092 z m -61.708901,4.06745 h 0.21343 0.21342 v 0.7059 0.70538 h -0.21342 -0.21343 v -0.70538 z m 23.541721,0 h 0.21342 0.21343 v 0.7059 0.70538 h -0.21343 -0.21342 v -0.70538 z m -40.184631,0.44596 h 8.25066 8.25014 v 0.48266 0.48266 h -8.25014 -8.25066 v -0.48266 z m 57.507601,0 c 10.72429,0 16.09851,0.0245 16.06931,0.0739 -0.0291,0.0492 -5.47686,0.0744 -16.11323,0.0744 -10.66568,0 -16.06982,-0.0251 -16.06982,-0.0744 0,-0.0493 5.41876,-0.0739 16.11374,-0.0739 z m 16.74523,0.20206 v 0.38137 0.38189 h -16.74936 -16.74988 v -0.33434 -0.33383 l 16.37626,-0.001 c 9.00686,-5.3e-4 16.54399,-0.0217 16.74936,-0.0475 z m -93.989091,0.16898 c 1.30392,0 2.02675,0.0266 2.02675,0.0744 0,0.0478 -0.72283,0.0744 -2.02675,0.0744 -1.30393,0 -2.02727,-0.0266 -2.02727,-0.0744 0,-0.0478 0.72334,-0.0744 2.02727,-0.0744 z m 126.065691,3.0453 h 15.87965 15.87913 v 7.53855 7.53856 h -15.87913 -15.87965 v -0.74259 -0.74259 h 3.4246 3.42511 l -0.0455,-0.87281 c -0.10763,-2.07539 -1.01793,-3.91978 -2.49236,-5.04931 -1.24363,-0.95273 -2.50585,-1.43093 -3.77703,-1.43093 h -0.53485 v -3.11971 z m 31.93448,4.08502 h 0.6041 0.60461 v 0.22272 0.22272 h -0.60461 -0.6041 v -0.22272 z m 0.10646,0.66817 c 0.093,0 0.10645,0.36335 0.10645,2.82257 0,2.45923 -0.0135,2.82257 -0.10645,2.82257 -0.093,0 -0.10646,-0.36334 -0.10646,-2.82257 0,-2.45922 0.0135,-2.82257 0.10646,-2.82257 z m 0.36483,1.47433 c 0.003,0.0221 0.005,0.10609 0.008,0.25735 0.0119,0.60503 0.012,1.57426 0,2.15386 -0.0118,0.57962 -0.0217,0.0845 -0.0217,-1.10018 0,-0.88848 0.006,-1.37737 0.0134,-1.31103 z m -146.202961,5.50768 v 4.15892 4.15943 h 0.21343 0.21342 v -4.15943 -4.15892 h -0.21342 z m 0.21343,0.14831 c 0.0465,0 0.0713,1.38632 0.0713,4.01061 0,2.62427 -0.0248,4.0106 -0.0713,4.0106 -0.0465,0 -0.0713,-1.38633 -0.0713,-4.0106 0,-2.62429 0.0248,-4.01061 0.0713,-4.01061 z m 116.923091,1.4211 c 0.60588,0 1.20852,0.003 1.66191,0.009 0.9068,0.0113 0.14458,0.0212 -1.69395,0.0212 -1.83854,-1.1e-4 -2.58073,-0.009 -1.64899,-0.0212 0.46586,-0.006 1.07515,-0.009 1.68103,-0.009 z m -3.33933,3.62923 h 15.88895 15.88895 l 10e-4,19.23656 0.001,19.23603 h -15.88993 -15.88997 v -14.25132 -14.25133 l 0.69038,-0.0543 c 1.39451,-0.10918 3.08148,-0.79488 4.14601,-1.68569 1.19687,-1.00155 1.98905,-2.19351 2.55799,-3.84834 0.26963,-0.78427 0.47209,-1.99665 0.4191,-2.51044 l -0.0253,-0.24495 -2.76985,0.006 c -1.52344,0.003 -3.27608,-0.0168 -3.89434,-0.0445 l -1.12396,-0.0501 v -0.76895 z m -113.156921,1.18856 h 0.78238 0.78238 v 0.22273 0.22273 h -0.78238 -0.78238 v -0.22273 z m 116.961851,0.59428 c 2.48931,0 3.80546,0.0253 3.80546,0.0739 0,0.0486 -1.31615,0.0744 -3.80546,0.0744 -2.48931,0 -3.80493,-0.0258 -3.80493,-0.0744 0,-0.0486 1.31562,-0.0739 3.80493,-0.0739 z m 28.12955,7.57577 h 0.24857 0.24908 v 3.04477 3.0453 h -0.24908 -0.24857 v -3.0453 z m -145.091401,0.59376 h 0.78238 0.78238 v 0.22324 0.22273 h -0.78238 -0.78238 v -0.22273 z m 145.873791,0.14883 c 0.046,0 0.0708,0.90338 0.0708,2.56211 0,1.40932 -0.0109,2.56264 -0.0243,2.56264 -0.0368,0 -0.11782,-2.77044 -0.11782,-4.0225 0,-0.68524 0.0271,-1.10225 0.0713,-1.10225 z m -125.817131,5.12372 v 3.15691 3.15691 h -4.41058 -4.41007 l 0.0186,-3.13779 0.0181,-3.13779 4.39198,-0.0191 z m 125.034741,0.37258 h 0.24857 0.24908 v 0.6966 c 0,0.63445 -0.0126,0.70047 -0.14211,0.73587 -0.14024,0.0383 -0.14263,0.10133 -0.14263,4.27933 0,3.71978 -0.0129,4.24057 -0.10645,4.24057 -0.0938,0 -0.10646,-0.60264 -0.10646,-4.97644 z m 0.82372,0.4284 c 0.003,0.006 0.007,0.0295 0.0103,0.0729 0.015,0.17361 0.015,0.45736 0,0.63097 -0.0149,0.17361 -0.0269,0.032 -0.0269,-0.31522 0,-0.26045 0.007,-0.40563 0.0165,-0.38861 z m -0.35191,3.16518 c 0.002,0.0285 0.005,0.15652 0.008,0.39326 0.0112,0.94694 0.0112,2.51776 0,3.49074 -0.0114,0.973 -0.0201,0.19807 -0.0202,-1.72186 0,-1.43995 0.005,-2.24773 0.0124,-2.16214 z m -74.47349,2.49649 h 1.50637 1.50585 v 0.80357 0.80357 l -8.99635,9.39012 c -4.94774,5.1647 -9.00997,9.40413 -9.02787,9.42113 -0.0179,0.017 -0.0326,-0.25834 -0.0326,-0.61236 v -0.64389 h -0.85369 -0.8537 v -0.83613 -0.83612 l 8.37623,-8.74521 z m 3.12746,1.70842 h 11.53934 11.53987 v 26.25525 26.25473 h -20.62562 -20.62561 v -16.76694 -16.76693 l 9.08575,-9.48831 z m 24.92819,15.22543 h 0.49816 0.49765 v 0.81701 0.817 h -0.49765 -0.49816 v -0.817 z m 1.13843,0 h 0.17777 0.17777 v 0.78032 0.77979 h -0.17777 -0.17777 v -0.77979 z m 8.39225,0 h 0.21343 0.21342 v 0.78032 0.77979 h -0.21342 -0.21343 v -0.77979 z m -9.53068,1.78284 h 0.74621 0.74621 l 0.0186,4.06642 0.0181,4.06641 0.21341,0.0264 c 0.41271,0.0517 1.63948,-0.16167 2.33475,-0.40618 2.00929,-0.70662 3.48531,-2.02348 4.57337,-4.08037 0.44302,-0.83752 0.78449,-2.03648 0.85059,-2.98586 l 0.0481,-0.68678 h 15.8688 15.86931 l 0.0129,19.79362 0.0134,19.79311 h -20.65662 -20.65714 v -19.79311 z m 1.75287,1.52032 c 0.002,0.0389 0.005,0.1928 0.008,0.4718 0.0111,1.11604 0.0111,2.92077 0,4.01061 -0.0111,1.08985 -0.0202,0.17655 -0.0202,-2.02933 0,-1.6544 0.005,-2.56972 0.0124,-2.45308 z m 40.31691,7.83776 c 0.59754,0 0.6041,0.002 0.6041,0.18552 0,0.18368 -0.007,0.18604 -0.6041,0.18604 -0.59755,0 -0.60461,-0.003 -0.60461,-0.18604 0,-0.18368 0.007,-0.18552 0.60461,-0.18552 z m -0.60461,0.59428 h 0.24856 0.24908 v 3.7791 c 0,3.71674 -0.002,3.78017 -0.14211,3.81837 -0.14024,0.0383 -0.14211,0.10082 -0.14211,4.27881 0,3.71978 -0.0134,4.24057 -0.10697,4.24057 -0.0942,0 -0.10645,-0.94482 -0.10645,-8.05843 z m 0.78238,0.66818 c 0.0464,0 0.0708,1.20113 0.0708,3.45405 0,2.25291 -0.0244,3.45353 -0.0708,3.45353 -0.0464,0 -0.0713,-1.20062 -0.0713,-3.45353 0,-2.25292 0.0249,-3.45405 0.0713,-3.45405 z m -0.31057,9.11882 c 0.002,0.0317 0.005,0.16415 0.008,0.40669 0.0112,0.97018 0.0112,2.55777 0,3.52795 -0.0114,0.97018 -0.0207,0.17665 -0.0207,-1.76371 0,-1.45527 0.005,-2.26602 0.0124,-2.17093 z m -129.560571,4.25039 h 3.84059 3.8406 v 0.25993 0.25993 h -3.8406 -3.84059 v -0.25993 z m 7.82381,0 h 3.84059 3.8406 v 0.25993 0.25993 h -3.8406 -3.84059 v -0.25993 z m 7.8233,0 h 3.84059 3.84059 v 0.25993 0.25993 h -3.84059 -3.84059 v -0.25993 z m -11.80652,0.66869 c 3.3665,0 3.8406,0.0135 3.8406,0.11111 0,0.0976 -0.4741,0.11162 -3.8406,0.11162 -3.36649,0 -3.84059,-0.0139 -3.84059,-0.11162 0,-0.0976 0.4741,-0.11111 3.84059,-0.11111 z m 7.82381,0 c 3.3665,0 3.8406,0.0135 3.8406,0.11111 0,0.0976 -0.4741,0.11162 -3.8406,0.11162 -3.36649,0 -3.84059,-0.0139 -3.84059,-0.11162 0,-0.0976 0.4741,-0.11111 3.84059,-0.11111 z m 7.8233,0 c 3.36649,0 3.84059,0.0135 3.84059,0.11111 0,0.0976 -0.4741,0.11162 -3.84059,0.11162 -3.3665,0 -3.84059,-0.0139 -3.84059,-0.11162 0,-0.0976 0.47409,-0.11111 3.84059,-0.11111 z m -19.4877,0.37104 h 3.84059 3.8406 v 0.25993 0.25993 h -3.8406 -3.84059 v -0.25993 z m 7.82381,0 h 3.84059 3.8406 v 0.25993 0.25993 h -3.8406 -3.84059 v -0.25993 z m 7.8233,0 h 3.84059 3.84059 v 0.25993 0.25993 h -3.84059 -3.84059 v -0.25993 z m 12.588891,0.66869 h 0.17777 0.17777 v 0.817 0.81701 h -0.17777 -0.17777 v -0.81701 z m 12.94443,0 h 0.17777 0.17776 v 0.817 0.81701 h -0.17776 -0.17777 v -0.81701 z m 87.90833,0.59376 h 0.60461 0.6041 v 0.22324 0.22273 h -0.6041 -0.60461 v -0.22273 z m -106.969181,9.3586 h 1.5999 1.600421 v 6.64714 6.64766 h -1.600421 -1.5999 v -6.64766 z m 26.457821,0 h 16.64239 16.64291 v 0.25994 0.25993 h -16.64291 -16.64239 v -0.25993 z m 16.64239,0.66818 c 14.74621,0 16.64291,0.0129 16.64291,0.11162 0,0.0987 -1.8967,0.11162 -16.64291,0.11162 -14.7462,0 -16.64239,-0.0129 -16.64239,-0.11162 0,-0.0987 1.89619,-0.11162 16.64239,-0.11162 z m -16.78502,0.37155 h 16.71422 16.71371 v 0.29714 0.29714 h -16.71371 -16.71422 v -0.29714 z m -5.61878,0.74259 h 21.47931 21.47931 v 1.96836 1.96835 h -21.47931 -21.47931 v -1.96835 z"
       id="path196"
       inkscape:connector-curvature="0" />
  </g>
</svg>
