<?xml version="1.0" encoding="utf-8"?>
<!-- Svg Vector Icons : http://www.onlinewebfonts.com/icon -->
<!DOCTYPE svg PUBLIC "-//W3C//DTD SVG 1.1//EN" "http://www.w3.org/Graphics/SVG/1.1/DTD/svg11.dtd">
<svg version="1.1" xmlns="http://www.w3.org/2000/svg" xmlns:xlink="http://www.w3.org/1999/xlink" x="0px" y="0px" viewBox="0 0 1000 1000" enable-background="new 0 0 1000 1000" xml:space="preserve">
<metadata> Svg Vector Icons : http://www.onlinewebfonts.com/icon </metadata>
<g><g transform="translate(0.000000,512.000000) scale(0.100000,-0.100000)"><path d="M3248.4,5004c-97.7-24.9-256.8-120.7-316.2-191.6c-30.7-38.3-74.7-107.3-97.7-155.2l-44.1-86.2l-5.7-4416.8c-3.8-4006.7-1.9-4426.4,26.8-4514.5c46-147.6,149.5-272.1,295.1-350.7l124.6-69h1772.5h1772.5l120.7,65.2c134.1,72.8,191.6,132.2,268.3,277.8l51.7,97.7V115.9V4571l-69,124.6c-44.1,80.5-99.6,149.5-159.1,193.5c-182,138-90,132.2-1983.2,130.3C4072.3,5017.4,3281,5011.7,3248.4,5004z M4112.6,4360.2c46-44.1,47.9-59.4,47.9-258.7c0-199.3-1.9-214.6-47.9-258.7c-44.1-46-53.6-47.9-335.3-47.9s-291.3,1.9-335.3,47.9c-46,44.1-47.9,59.4-47.9,258.7c0,199.3,1.9,214.6,47.9,258.7c44.1,46,53.6,47.9,335.3,47.9S4068.5,4406.2,4112.6,4360.2z M6565.3,4360.2c46-44.1,47.9-59.4,47.9-258.7c0-199.3-1.9-214.6-47.9-258.7c-44.1-46-53.7-47.9-335.3-47.9s-291.3,1.9-335.3,47.9c-46,44.1-47.9,59.4-47.9,258.7c0,199.3,1.9,214.6,47.9,258.7c44.1,46,53.7,47.9,335.3,47.9S6521.2,4406.2,6565.3,4360.2z M5268,3304.4c141.8-28.7,408.1-141.8,498.2-212.7l42.2-34.5l-245.3-245.3l-243.4-243.4l-109.2,38.3c-61.3,21.1-153.3,38.3-206.9,38.3c-53.7,0-145.6-17.2-206.9-38.3l-109.2-38.3l-243.4,243.4l-245.3,245.3l42.2,34.5c86.2,67.1,352.6,184,484.8,212.7C4904,3340.8,5087.9,3340.8,5268,3304.4z M4428.8,2239c-21.1-61.3-38.3-153.3-38.3-206.9c0-53.6,17.2-145.6,38.3-206.9l38.3-109.2l-245.3-245.3l-247.2-247.2l-63.2,99.6c-277.8,433.1-275.9,986.8,3.8,1423.7l59.4,93.9l247.2-247.2l245.3-245.3L4428.8,2239z M6124.6,2693.1c245.3-410.1,233.8-960-28.7-1370.1l-63.2-99.6l-249.1,249.1l-251,251l38.3,82.4c49.8,111.1,49.8,341.1,0,452.2l-38.3,82.4l247.2,247.2c136,136.1,254.8,241.4,262.5,233.8C6047.9,2813.8,6086.2,2756.4,6124.6,2693.1z M4831.2,1447.6c107.3-40.2,302.8-30.7,408.1,21.1l72.8,34.5l249.1-249.1l251-251l-99.6-63.2c-429.2-275.9-988.8-275.9-1418,0L4195,1003l247.2,247.2c155.2,155.2,256.8,243.3,274,237.6C4731.5,1482.1,4783.3,1464.8,4831.2,1447.6z M4112.6,68c46-44.1,47.9-59.4,47.9-258.7c0-199.3-1.9-214.6-47.9-258.7c-44.1-46-53.6-47.9-335.3-47.9s-291.3,1.9-335.3,47.9c-46,44.1-47.9,59.4-47.9,258.7c0,199.3,1.9,214.6,47.9,258.7c44.1,46,53.6,47.9,335.3,47.9S4068.5,113.9,4112.6,68z M5338.9,68c46-44.1,47.9-59.4,47.9-258.7c0-199.3-1.9-214.6-47.9-258.7c-44.1-46-53.7-47.9-335.3-47.9c-281.7,0-291.3,1.9-335.3,47.9c-46,44.1-47.9,59.4-47.9,258.7c0,199.3,1.9,214.6,47.9,258.7c44.1,46,53.6,47.9,335.3,47.9C5285.3,115.9,5294.9,113.9,5338.9,68z M6565.3,68c46-44.1,47.9-59.4,47.9-258.7c0-199.3-1.9-214.6-47.9-258.7c-44.1-46-53.7-47.9-335.3-47.9s-291.3,1.9-335.3,47.9c-46,44.1-47.9,59.4-47.9,258.7c0,199.3,1.9,214.6,47.9,258.7c44.1,46,53.7,47.9,335.3,47.9S6521.2,113.9,6565.3,68z M4112.6-1005.1c46-44.1,47.9-59.4,47.9-258.7c0-199.3-1.9-214.6-47.9-258.7c-44.1-46-53.6-47.9-335.3-47.9s-291.3,1.9-335.3,47.9c-46,44.1-47.9,59.4-47.9,258.7c0,199.3,1.9,214.6,47.9,258.7c44.1,46,53.6,47.9,335.3,47.9S4068.5-959.1,4112.6-1005.1z M5338.9-1005.1c46-44.1,47.9-59.4,47.9-258.7c0-199.3-1.9-214.6-47.9-258.7c-44.1-46-53.7-47.9-335.3-47.9c-281.7,0-291.3,1.9-335.3,47.9c-46,44.1-47.9,59.4-47.9,258.7c0,199.3,1.9,214.6,47.9,258.7c44.1,46,53.6,47.9,335.3,47.9C5285.3-957.2,5294.9-959.1,5338.9-1005.1z M6565.3-1005.1c46-44.1,47.9-59.4,47.9-258.7c0-199.3-1.9-214.6-47.9-258.7c-44.1-46-53.7-47.9-335.3-47.9s-291.3,1.9-335.3,47.9c-46,44.1-47.9,59.4-47.9,258.7c0,199.3,1.9,214.6,47.9,258.7c44.1,46,53.7,47.9,335.3,47.9S6521.2-959.1,6565.3-1005.1z M4112.6-2078.2c46-44.1,47.9-59.4,47.9-258.7c0-199.3-1.9-214.6-47.9-258.7c-44.1-46-53.6-47.9-335.3-47.9s-291.3,1.9-335.3,47.9c-46,44.1-47.9,59.4-47.9,258.7c0,199.3,1.9,214.6,47.9,258.7c44.1,46,53.6,47.9,335.3,47.9S4068.5-2032.2,4112.6-2078.2z M5338.9-2078.2c46-44.1,47.9-59.4,47.9-258.7c0-199.3-1.9-214.6-47.9-258.7c-44.1-46-53.7-47.9-335.3-47.9c-281.7,0-291.3,1.9-335.3,47.9c-46,44.1-47.9,59.4-47.9,258.7c0,199.3,1.9,214.6,47.9,258.7c44.1,46,53.6,47.9,335.3,47.9C5285.3-2030.3,5294.9-2032.2,5338.9-2078.2z M6565.3-2078.2c46-44.1,47.9-59.4,47.9-258.7c0-199.3-1.9-214.6-47.9-258.7c-44.1-46-53.7-47.9-335.3-47.9s-291.3,1.9-335.3,47.9c-46,44.1-47.9,59.4-47.9,258.7c0,199.3,1.9,214.6,47.9,258.7c44.1,46,53.7,47.9,335.3,47.9S6521.2-2032.2,6565.3-2078.2z M5338.9-3151.2c46-44.1,47.9-59.4,47.9-258.7s-1.9-214.6-47.9-258.7c-44.1-46-53.7-47.9-335.3-47.9c-281.7,0-291.3,1.9-335.3,47.9c-46,44.1-47.9,59.4-47.9,258.7s1.9,214.6,47.9,258.7c44.1,46,53.6,47.9,335.3,47.9C5285.3-3103.3,5294.9-3105.2,5338.9-3151.2z"/></g></g>
</svg>